<svg width="72" height="71" viewBox="0 0 72 71" fill="none" xmlns="http://www.w3.org/2000/svg">
<path d="M28.2891 31.6172V20.6699H36.1878C40.5055 20.6699 43.0304 22.6979 43.0304 26.1591C43.0304 29.718 40.3502 31.6172 35.2027 31.6172H28.2891ZM28.2891 48.3111H36.7114C41.9654 48.3111 44.7433 46.1811 44.7433 42.2007C44.7433 38.2735 41.8589 36.2189 36.3742 36.2189H28.2891V48.3111Z" fill="#51AFE4"/>
<path d="M17.7539 0C13.0463 0 8.53153 1.87008 5.20276 5.19886C1.87399 8.52763 0.00390625 13.0424 0.00390625 17.75V53.25C0.00390625 57.9576 1.87399 62.4724 5.20276 65.8011C8.53153 69.1299 13.0463 71 17.7539 71H53.2539C57.9615 71 62.4763 69.1299 65.8051 65.8011C69.1338 62.4724 71.0039 57.9576 71.0039 53.25V17.75C71.0039 13.0424 69.1338 8.52763 65.8051 5.19886C62.4763 1.87008 57.9615 0 53.2539 0L17.7539 0ZM22.4577 53.25V15.7309H37.5407C44.583 15.7309 48.8253 19.3209 48.8253 25.0941C48.8253 29.0168 45.9409 32.5269 42.2445 33.1526V33.5963C47.3165 34.1155 50.6935 37.7276 50.6935 42.6178C50.6935 49.2208 45.8832 53.25 37.878 53.25H22.4577Z" fill="#51AFE4"/>
</svg>
