<svg width="46" height="72" viewBox="0 0 46 72" fill="none" xmlns="http://www.w3.org/2000/svg">
<path fill-rule="evenodd" clip-rule="evenodd" d="M10.4603 26.3247C9.15858 26.3247 7.86958 26.5811 6.66693 27.0793C5.46428 27.5774 4.37152 28.3076 3.45105 29.2281C2.53058 30.1485 1.80043 31.2413 1.30227 32.444C0.804116 33.6466 0.547719 34.9356 0.547719 36.2373C0.547719 37.5391 0.804116 38.8281 1.30227 40.0307C1.80043 41.2334 2.53058 42.3261 3.45105 43.2466C4.37152 44.1671 5.46428 44.8972 6.66693 45.3954C7.86958 45.8935 9.15858 46.1499 10.4603 46.1499H20.3729V36.4369C20.3714 36.3039 20.3714 36.1708 20.3729 36.0378V26.3247H10.4603ZM20.3729 20.5683H10.4603C7.83083 20.5683 5.30903 19.5237 3.4497 17.6644C1.59036 15.8051 0.5458 13.2833 0.5458 10.6538C0.5458 8.02428 1.59036 5.50249 3.4497 3.64315C5.30903 1.78382 7.83083 0.739258 10.4603 0.739258H20.3729V20.5683ZM26.1294 0.739258V20.5683H36.042C38.6377 20.5172 41.1099 19.4502 42.9275 17.5964C44.7452 15.7427 45.7633 13.25 45.7633 10.6538C45.7633 8.05756 44.7452 5.56488 42.9275 3.71111C41.1099 1.85733 38.6377 0.790329 36.042 0.739258H26.1294ZM36.042 26.3209C33.44 26.3206 30.9423 27.3433 29.0878 29.1684C27.2332 30.9935 26.1707 33.4745 26.1294 36.0762V36.3947C26.1611 38.348 26.7694 40.2484 27.8777 41.8572C28.9861 43.466 30.5451 44.7114 32.3589 45.437C34.1728 46.1626 36.1606 46.3361 38.0727 45.9356C39.9849 45.5351 41.736 44.5785 43.1062 43.186C44.4764 41.7935 45.4047 40.0272 45.7743 38.1088C46.1438 36.1905 45.9384 34.2057 45.1836 32.4038C44.4288 30.6019 43.1584 29.0632 41.532 27.9809C39.9056 26.8987 37.9956 26.3212 36.042 26.3209ZM10.4603 51.9064C8.49887 51.9056 6.58125 52.4866 4.95 53.5757C3.31874 54.6649 2.04713 56.2134 1.29599 58.0253C0.54485 59.8372 0.347923 61.8312 0.730117 63.7551C1.11231 65.6789 2.05646 67.4462 3.44314 68.8334C4.82983 70.2207 6.59677 71.1655 8.52047 71.5484C10.4442 71.9314 12.4382 71.7352 14.2505 70.9848C16.0627 70.2343 17.6116 68.9633 18.7014 67.3325C19.7912 65.7017 20.3729 63.7843 20.3729 61.8228V51.9064H10.4603Z" fill="#E4A951"/>
</svg>
