<svg width="72" height="72" viewBox="0 0 72 72" fill="none" xmlns="http://www.w3.org/2000/svg">
<path fill-rule="evenodd" clip-rule="evenodd" d="M28.3589 23.4864C26.2801 22.9642 24.1984 23.1319 22.0015 23.474C22.0015 27.3161 21.9936 31.0549 22.0224 34.7942C22.0236 34.9856 22.3109 35.3187 22.4973 35.3441C24.8929 35.6677 27.2755 35.6936 29.5158 34.6017C31.8335 33.4725 33.0141 31.1113 32.708 28.3392C32.4303 25.8148 30.9358 24.134 28.3589 23.4864ZM71.6942 36.1035V1.8448C71.6942 0.661397 71.7072 0.554688 70.5582 0.554688H1.95433C0.836987 0.554688 0.554688 0.661961 0.554688 1.7889V70.3927C0.554688 71.5321 0.696967 71.5338 1.80189 71.5338C24.6992 71.5344 47.6648 71.5287 70.5621 71.5547C71.4503 71.5558 71.6885 71.3192 71.6863 70.4486C71.6558 59.0003 71.6942 47.5508 71.6942 36.1035ZM31.8064 39.4008C28.6689 40.5198 25.397 40.5825 22.0095 40.3199V53.0624H15.7989V52.2708C15.7989 41.6027 15.7497 30.9358 15.7198 20.2682C15.7164 19.3824 15.857 18.9544 16.8552 18.8528C21.5595 18.3717 26.2372 17.8308 30.9149 18.9279C35.9432 20.1062 38.8424 23.4305 39.0626 28.0236C39.3353 33.7113 36.8358 37.6071 31.8064 39.4008ZM56.8238 46.6017C56.5844 49.86 54.7472 51.9992 51.7339 53.0336C47.7015 54.418 43.6912 54.0967 39.7503 52.5305C39.1049 52.2736 38.9802 51.9484 39.193 51.2907C39.5809 50.0903 39.8649 48.8561 40.1641 47.7416C41.8303 48.2305 43.4145 48.8409 45.0558 49.1294C46.2149 49.3332 47.4678 49.2135 48.6461 49.0289C49.7025 48.8629 50.4624 48.1459 50.6358 47.0121C50.8119 45.8598 50.4647 44.8616 49.4473 44.2484C48.6388 43.7617 47.7478 43.4134 46.8936 43.0052C45.5199 42.3486 44.0559 41.8336 42.789 41.0121C37.803 37.7787 39.4262 31.7623 42.7534 29.4966C44.5336 28.285 46.5034 27.7475 48.6122 27.6735C51.0925 27.5866 53.4808 28.0145 55.8267 29.1544L54.5874 33.5521C53.605 33.2043 52.6903 32.7526 51.7249 32.5731C50.5793 32.3597 49.3778 32.2405 48.2215 32.3348C46.6711 32.4619 45.7633 33.5318 45.7633 34.8586C45.7633 35.6445 46.0614 36.3096 46.7169 36.6907C47.6575 37.2378 48.6557 37.6889 49.6449 38.1468C50.7154 38.642 51.8457 39.0225 52.8761 39.5877C55.6257 41.0951 57.0569 43.4269 56.8238 46.6017Z" fill="#E4A951"/>
</svg>
