<svg width="81" height="72" viewBox="0 0 81 72" fill="none" xmlns="http://www.w3.org/2000/svg">
<path d="M40.8674 42.8041C44.7971 42.8041 47.9828 39.6184 47.9828 35.6887C47.9828 31.7589 44.7971 28.5732 40.8674 28.5732C36.9376 28.5732 33.752 31.7589 33.752 35.6887C33.752 39.6184 36.9376 42.8041 40.8674 42.8041Z" fill="#51AFE4"/>
<path d="M20.9438 49.8349L19.3692 49.4323C7.67366 46.4785 0.964844 41.4559 0.964844 35.6718C0.964844 29.8838 7.67764 24.8652 19.3692 21.9114L20.9438 21.5128L21.3863 23.0714C22.5684 27.1521 24.0829 31.129 25.9146 34.9623L26.2535 35.6718L25.9146 36.3814C24.081 40.2201 22.5622 44.1984 21.3863 48.2803L20.9438 49.8349ZM18.6438 25.5389C9.75846 28.0422 4.30131 31.861 4.30131 35.6718C4.30131 39.4747 9.75447 43.2975 18.6438 45.7969C19.732 42.3368 21.0474 38.9525 22.5702 35.6718C21.0364 32.3857 19.7247 29.0005 18.6438 25.5389ZM60.7861 49.8349L60.3476 48.2723C59.1624 44.1908 57.6466 40.2127 55.8153 36.3774L55.4765 35.6718L55.8153 34.9583C57.649 31.1276 59.1597 27.1453 60.3476 23.0634L60.7861 21.5088L62.3607 21.9074C74.0602 24.8612 80.7651 29.8799 80.7651 35.6718C80.7651 41.4598 74.0563 46.4785 62.3607 49.4323L60.7861 49.8349ZM59.1518 35.6718C60.7463 39.1239 62.0737 42.5202 63.0862 45.7969C71.9754 43.2975 77.4326 39.4747 77.4326 35.6718C77.4326 31.861 71.9794 28.0462 63.0862 25.5389C61.999 28.9994 60.6847 32.3844 59.1518 35.6718Z" fill="#51AFE4"/>
<path d="M18.6201 25.5225L18.1816 23.9679C14.889 12.3759 15.8856 4.07264 20.9202 1.17864C25.8432 -1.67151 33.7638 1.69685 42.0591 10.2074L43.1912 11.3714L42.0591 12.5314C39.1128 15.5956 36.4199 18.8937 34.0069 22.3933L33.5565 23.0391L32.7752 23.1029C28.5322 23.4361 24.3234 24.1147 20.1907 25.1318L18.6201 25.5225ZM24.9263 3.48267C24.0334 3.48267 23.2441 3.678 22.5784 4.06068C19.2778 5.9621 18.6959 12.5832 20.968 21.5203C24.5197 20.735 28.1033 20.173 31.7149 19.8581C33.8057 16.8925 36.0866 14.0657 38.5433 11.3953C33.3492 6.34478 28.4462 3.48267 24.9263 3.48267ZM56.8042 71.1846C52.0685 71.1846 45.9855 67.613 39.6714 61.1314L38.5433 59.9714L39.6714 58.8154C42.6181 55.7463 45.3123 52.4443 47.7275 48.9415L48.174 48.3037L48.9473 48.228C53.1918 47.9007 57.4022 47.2247 61.5358 46.207L63.1104 45.8084L63.5528 47.367C66.8295 58.9509 65.8369 67.2662 60.8103 70.1602C59.5898 70.852 58.2069 71.2056 56.8042 71.1846ZM43.1912 59.9435C48.3813 64.994 53.2883 67.8601 56.8042 67.8601C57.7011 67.8601 58.4903 67.6608 59.152 67.2821C62.4566 65.3767 63.0426 58.7436 60.7625 49.8065C57.2147 50.5958 53.6271 51.1619 50.0076 51.4768C47.9257 54.447 45.6485 57.2755 43.1912 59.9435Z" fill="#51AFE4"/>
<path d="M63.1103 25.5223L61.5358 25.1277C57.4023 24.1073 53.192 23.4287 48.9473 23.0987L48.1739 23.0309L47.7275 22.3851C45.3156 18.8836 42.6212 15.5853 39.6713 12.5232L38.5432 11.3632L39.6713 10.2072C47.9627 1.70065 55.8793 -1.66771 60.8103 1.17845C65.8409 4.07643 66.8414 12.3797 63.5528 23.9677L63.1103 25.5223ZM50.0076 19.8579C53.8105 20.1967 57.414 20.7667 60.7624 21.5201C63.0386 12.583 62.4566 5.96192 59.152 4.0565C55.8674 2.15507 49.6847 5.06502 43.1912 11.3951C45.6467 14.0659 47.9268 16.8881 50.0076 19.8579ZM24.9263 71.1845C23.5236 71.2045 22.1409 70.8509 20.9201 70.16C15.8855 67.266 14.889 58.9547 18.1776 47.3668L18.6081 45.8082L20.1827 46.2068C24.0254 47.1755 28.2588 47.8571 32.7712 48.2278L33.5445 48.3036L33.9949 48.9414C36.4026 52.4413 39.0973 55.7458 42.0471 58.8152L43.1792 59.9712L42.0471 61.1312C35.7369 67.6168 29.6539 71.1845 24.9263 71.1845ZM20.9679 49.8103C18.6958 58.7475 19.2778 65.3805 22.5784 67.2859C25.867 69.1595 32.0297 66.2695 38.5432 59.9433C36.0875 57.2721 33.8066 54.4454 31.7148 51.4806C28.0997 51.1609 24.5096 50.6029 20.9679 49.8103Z" fill="#51AFE4"/>
<path d="M40.8671 51.9043C38.1285 51.9043 35.3182 51.7887 32.496 51.5535L31.7147 51.4858L31.2643 50.84C29.6728 48.5515 28.1754 46.199 26.7758 43.7884C25.3865 41.3712 24.0953 38.8991 22.9052 36.378L22.5703 35.6724L22.9052 34.9589C24.097 32.4396 25.3846 29.9681 26.7758 27.5525C28.159 25.1767 29.6698 22.8009 31.2643 20.4968L31.7147 19.859L32.496 19.7873C38.0643 19.3209 43.6619 19.3209 49.2302 19.7873L50.0035 19.863L50.4539 20.5008C53.6421 25.08 56.4422 29.9175 58.825 34.9629L59.1558 35.6764L58.825 36.382C56.4488 41.4308 53.6484 46.2688 50.4539 50.844L50.0035 51.4898L49.2302 51.5575C46.4159 51.7847 43.6016 51.9043 40.8671 51.9043ZM33.5563 48.3008C38.4793 48.6715 43.2548 48.6715 48.1738 48.3008C50.9199 44.2795 53.3609 40.0583 55.4766 35.6724C53.3684 31.2826 50.927 27.0608 48.1738 23.044C43.3085 22.6693 38.4216 22.6693 33.5563 23.044C30.8008 27.0594 28.3593 31.2813 26.2536 35.6724C28.3738 40.0558 30.8147 44.2768 33.5563 48.3008Z" fill="#51AFE4"/>
</svg>
