<svg width="71" height="71" viewBox="0 0 71 71" fill="none" xmlns="http://www.w3.org/2000/svg">
<path d="M35.5 0C55.1115 0 71 15.8885 71 35.5C71 55.1115 55.1115 71 35.5 71C15.8885 71 0 55.1115 0 35.5C0 15.8885 15.8885 0 35.5 0ZM28.4377 47.3215C28.9591 49.2407 28.9014 51.0202 28.3689 52.6265L28.1826 53.159C28.1138 53.3432 28.0228 53.5162 27.9518 53.6804C27.5246 54.5567 26.9723 55.3661 26.3122 56.0833C24.2421 58.3265 21.3666 59.1807 20.1285 58.4641C18.7884 57.6897 19.4562 54.5125 21.8502 51.9787C24.4262 49.2629 28.1249 47.5168 28.1249 47.5168V47.5079L28.4377 47.3215ZM57.7674 15.1962C56.161 8.88609 45.704 6.81822 35.8106 10.3305C29.9176 12.4228 23.552 15.7065 18.9637 19.9932C13.5077 25.0874 12.6424 29.5249 13.0019 31.3731C14.271 37.914 23.2281 42.2028 26.9157 45.369V45.3934C25.8262 45.9237 17.8787 49.9108 16.0172 54.0488C14.0181 58.3908 16.33 61.5015 17.8299 61.8942C22.4892 63.1878 27.284 60.8292 29.8622 57.0152C32.3472 53.2855 32.1253 48.5019 31.0514 46.1433C32.518 45.7506 34.2531 45.5643 36.4718 45.8305C42.691 46.5472 43.9268 50.4544 43.6606 52.0497C43.3943 53.6449 42.1097 54.579 41.6615 54.8453C41.2244 55.1115 41.0846 55.1914 41.129 55.3778C41.1756 55.644 41.3952 55.644 41.7524 55.5974C42.2383 55.5176 44.9896 54.2684 45.1272 51.2509C45.2536 47.4258 41.6127 43.1747 35.1428 43.2545C32.4736 43.3144 30.7852 43.5319 29.5959 44.0178C29.5095 43.897 29.4038 43.7913 29.2831 43.7049C25.2871 39.4072 17.8787 36.3919 18.1893 30.6587C18.2847 28.5797 19.0347 23.0794 32.3915 16.4232C43.3455 10.9562 52.094 12.4716 53.5961 15.7997C55.7705 20.5478 48.939 29.3785 37.5346 30.6587C33.1881 31.1446 30.9227 29.4694 30.3458 28.846C29.7224 28.1737 29.6425 28.1293 29.4073 28.2691C29.0612 28.4399 29.2808 29.0213 29.4073 29.3785C29.7645 30.266 31.1402 31.8169 33.5453 32.6112C35.6242 33.2835 40.734 33.6762 46.8578 31.2822C53.7337 28.6263 59.0964 21.2179 57.5455 14.9988L57.7674 15.1962Z" fill="#B98FD3"/>
</svg>
